<svg xmlns="http://www.w3.org/2000/svg" width="48" height="48" viewBox="0 0 48 48">
  <g id="组_14350" data-name="组 14350" transform="translate(-737 -5485)">
    <g id="telegram.805e47d0" transform="translate(737 5485)">
      <rect id="矩形_2878" data-name="矩形 2878" width="48" height="48" rx="10" transform="translate(0 0)" fill="#268fd3"/>
    </g>
    <path id="路径_13613" data-name="路径 13613" d="M16.169,22.5l-.386,5.437a1.352,1.352,0,0,0,1.08-.523l2.593-2.478,5.373,3.934c.985.549,1.68.26,1.945-.906L30.3,11.44h0c.313-1.457-.527-2.026-1.487-1.669L8.085,17.706c-1.415.549-1.393,1.338-.24,1.7l5.3,1.648,12.31-7.7c.579-.384,1.106-.171.673.212Z" transform="translate(742 5490.333)" fill="#fff"/>
  </g>
</svg>
