<svg xmlns="http://www.w3.org/2000/svg" width="48" height="48" viewBox="0 0 48 48">
  <g id="组_14349" data-name="组 14349" transform="translate(-798 -5486)">
    <g id="telegram.805e47d0" transform="translate(798 5486)">
      <rect id="矩形_2878" data-name="矩形 2878" width="48" height="48" rx="10" transform="translate(0 0)" fill="#0567cb"/>
    </g>
    <path id="路径_13614" data-name="路径 13614" d="M16.237,27.662a19.374,19.374,0,0,1-2.926-.227,13.929,13.929,0,0,1-4-1.424L8,25.312l1.416-.455c1.548-.5,2.49-.806,3.656-1.29a4.788,4.788,0,0,1-2.5-2.831l-.329-.978.27.04a4.835,4.835,0,0,1-.615-.742,4.477,4.477,0,0,1-.79-2.707l.062-.853.523.2a4.706,4.706,0,0,1-.473-1.3,4.84,4.84,0,0,1,.538-3.324l.455-.817.609.715a11.272,11.272,0,0,0,7.26,4,4.156,4.156,0,0,1,.264-2.255A4.253,4.253,0,0,1,20.1,10.744a5.371,5.371,0,0,1,3.061-.735,4.949,4.949,0,0,1,3.005,1.212,10.25,10.25,0,0,0,1.1-.359c.241-.089.515-.189.857-.3l1.261-.425-.823,2.3c.054,0,.11-.008.169-.011l1.347-.06-.8,1.063c-.046.061-.057.078-.074.1-.064.094-.144.212-1.237,1.638a1.98,1.98,0,0,0-.385,1.31,12.132,12.132,0,0,1-.692,4.984,8.812,8.812,0,0,1-2.422,3.507,10.8,10.8,0,0,1-5.07,2.4,15.962,15.962,0,0,1-3.167.3Z" transform="translate(803 5491)" fill="#f8f8f8"/>
  </g>
</svg>
