<svg width="27" height="28" viewBox="0 0 27 28" fill="none" xmlns="http://www.w3.org/2000/svg">
<g clip-path="url(#clip0)">
<path d="M13.6595 0.016968C16.2306 0.0164793 18.7442 0.757287 20.8822 2.14569C23.0201 3.53409 24.6865 5.5077 25.6705 7.81688C26.6545 10.1261 26.9119 12.6671 26.4102 15.1185C25.9085 17.5699 24.6701 19.8216 22.8518 21.5888L26.6595 27.017L13.6614 25.2884C11.9545 25.2886 10.2642 24.9619 8.6872 24.327C7.11015 23.6921 5.67719 22.7614 4.47011 21.5882C3.26304 20.4149 2.3055 19.0221 1.65217 17.4891C0.998842 15.9561 0.662511 14.313 0.662384 12.6536C0.662257 10.9943 0.998336 9.35117 1.65143 7.81809C2.30453 6.285 3.26185 4.89198 4.46875 3.71855C5.67564 2.54513 7.10846 1.61429 8.68541 0.979166C10.2624 0.344047 11.9526 0.0170915 13.6595 0.016968ZM13.6595 18.0734C13.2921 18.0734 12.933 18.1793 12.6276 18.3777C12.3221 18.5761 12.084 18.8581 11.9435 19.188C11.8029 19.518 11.7661 19.881 11.8378 20.2313C11.9094 20.5816 12.0863 20.9033 12.3461 21.1558C12.6059 21.4083 12.9368 21.5803 13.2971 21.65C13.6574 21.7197 14.0309 21.6839 14.3703 21.5472C14.7097 21.4106 14.9998 21.1791 15.2039 20.8822C15.408 20.5853 15.5169 20.2362 15.5169 19.879C15.5169 19.4002 15.3212 18.9409 14.9729 18.6023C14.6245 18.2636 14.1521 18.0734 13.6595 18.0734ZM13.6595 3.63202C12.1825 3.63202 10.7659 4.20227 9.72135 5.21738C8.67677 6.23249 8.08967 7.60935 8.08916 9.04518C8.08916 9.04518 7.84537 9.46462 10.0008 9.46462C12.1561 9.46462 11.804 9.04518 11.804 9.04518L11.8175 8.83452C11.8593 8.48873 12.0031 8.16205 12.2314 7.89384C12.4598 7.62563 12.7631 7.42733 13.1047 7.32281C13.4464 7.2183 13.8118 7.21203 14.157 7.30477C14.5022 7.3975 14.8125 7.58529 15.0505 7.8455C15.2884 8.10571 15.4439 8.42726 15.4982 8.7714C15.5525 9.11555 15.5033 9.46762 15.3565 9.78521C15.2097 10.1028 14.9716 10.3724 14.6709 10.5614C14.3701 10.7505 14.0196 10.851 13.6614 10.8508L13.4447 10.864C11.595 11.5806 11.8059 11.7405 11.8059 12.6565V14.4621C11.8059 14.941 12.0016 15.4003 12.35 15.7389C12.6983 16.0775 13.1707 16.2678 13.6634 16.2678C14.156 16.2678 14.6284 16.0775 14.9767 15.7389C15.3251 15.4003 15.5208 14.941 15.5208 14.4621V14.1499C16.7597 13.7237 17.8037 12.8855 18.4685 11.7834C19.1333 10.6814 19.376 9.3864 19.1538 8.12724C18.9315 6.86808 18.2586 5.72581 17.254 4.90222C16.2493 4.07863 14.9775 3.62674 13.6634 3.62637L13.6595 3.63202Z" fill="url(#paint0_linear)"/>
</g>
<defs>
<linearGradient id="paint0_linear" x1="26.6601" y1="0.0169678" x2="0.662384" y2="0.0169678" gradientUnits="userSpaceOnUse">
<stop stop-color="#8743FF"/>
<stop offset="1" stop-color="#4136F1"/>
</linearGradient>
<clipPath id="clip0">
<rect width="26" height="27" fill="white" transform="translate(0.660889 0.0169678)"/>
</clipPath>
</defs>
</svg>
