<svg width="32" height="29" viewBox="0 0 32 29" fill="none" xmlns="http://www.w3.org/2000/svg">
<path d="M25.9166 4.95728H27.3333C28.4605 4.95728 29.5415 5.39187 30.3385 6.16546C31.1355 6.93905 31.5833 7.98826 31.5833 9.08228V20.7876C31.5833 21.2367 31.4922 21.6814 31.3151 22.0963C31.138 22.5112 30.8785 22.8881 30.5514 23.2057C30.2242 23.5232 29.8358 23.7751 29.4083 23.947C28.9809 24.1188 28.5227 24.2073 28.06 24.2073H26.7595C26.4443 24.2071 26.138 24.3089 25.8891 24.4967C25.6402 24.6845 25.4629 24.9475 25.3854 25.244C24.7691 27.6077 24.439 28.3543 23.096 28.3543C22.1115 28.3543 21.2317 27.5224 18.6307 24.6707C18.4977 24.5249 18.3344 24.4082 18.1514 24.3284C17.9685 24.2485 17.7702 24.2072 17.5696 24.2073H13.1921C12.8164 24.2072 12.4562 24.0623 12.1905 23.8045C11.9249 23.5466 11.7757 23.1969 11.7757 22.8323C11.7757 22.4676 11.9249 22.1179 12.1905 21.8601C12.4562 21.6022 12.8164 21.4573 13.1921 21.4573H17.5696C18.1711 21.4572 18.7658 21.5812 19.3143 21.8208C19.8628 22.0604 20.3527 22.4103 20.7515 22.8474C21.4839 23.6504 22.0945 24.2967 22.5832 24.7834L22.6399 24.5689C22.8721 23.6794 23.4034 22.8904 24.1495 22.3269C24.8956 21.7633 25.8141 21.4573 26.7595 21.4573H28.06C28.4411 21.4573 28.75 21.1575 28.75 20.7876V9.08228C28.75 8.7176 28.6007 8.36787 28.335 8.11C28.0694 7.85214 27.709 7.70728 27.3333 7.70728H25.9166V16.7878C25.9166 18.314 24.643 19.5502 23.0833 19.5502H14.4062C12.8422 19.5502 10.798 20.5126 9.83604 21.7103L8.97754 22.7787C8.01846 23.9722 7.13871 23.7164 7.01263 22.197L7.01971 22.2933C6.89363 20.778 5.53221 19.5213 3.95829 19.4883L3.24996 19.4718C2.49453 19.4546 1.7758 19.152 1.24667 18.6284C0.717534 18.1049 0.419739 17.4016 0.416626 16.6682V3.57403C0.416626 2.06015 1.68171 0.832275 3.24288 0.832275H23.0904C24.6515 0.832275 25.9166 2.06015 25.9166 3.59465V4.95728ZM6.08329 4.95728C5.89723 4.95725 5.71299 4.99279 5.54109 5.06188C5.36919 5.13097 5.21299 5.23225 5.08142 5.35993C4.94985 5.48761 4.84547 5.6392 4.77427 5.80604C4.70306 5.97287 4.66641 6.15169 4.66641 6.33227C4.66641 6.51286 4.70306 6.69168 4.77427 6.85851C4.84547 7.02535 4.94985 7.17694 5.08142 7.30462C5.21299 7.4323 5.36919 7.53358 5.54109 7.60267C5.71299 7.67176 5.89723 7.7073 6.08329 7.70728H13.1666C13.3527 7.7073 13.5369 7.67176 13.7088 7.60267C13.8807 7.53358 14.0369 7.4323 14.1685 7.30462C14.3001 7.17694 14.4044 7.02535 14.4757 6.85851C14.5469 6.69168 14.5835 6.51286 14.5835 6.33227C14.5835 6.15169 14.5469 5.97287 14.4757 5.80604C14.4044 5.6392 14.3001 5.48761 14.1685 5.35993C14.0369 5.23225 13.8807 5.13097 13.7088 5.06188C13.5369 4.99279 13.3527 4.95725 13.1666 4.95728H6.08329ZM6.08329 10.4573C5.89723 10.4572 5.71299 10.4928 5.54109 10.5619C5.36919 10.631 5.21299 10.7322 5.08142 10.8599C4.94985 10.9876 4.84547 11.1392 4.77427 11.306C4.70306 11.4729 4.66641 11.6517 4.66641 11.8323C4.66641 12.0129 4.70306 12.1917 4.77427 12.3585C4.84547 12.5253 4.94985 12.6769 5.08142 12.8046C5.21299 12.9323 5.36919 13.0336 5.54109 13.1027C5.71299 13.1718 5.89723 13.2073 6.08329 13.2073H17.4166C17.7923 13.2072 18.1526 13.0623 18.4182 12.8045C18.6838 12.5466 18.8331 12.1969 18.8331 11.8323C18.8331 11.4676 18.6838 11.1179 18.4182 10.8601C18.1526 10.6022 17.7923 10.4573 17.4166 10.4573H6.08329Z" fill="url(#paint0_linear)"/>
<defs>
<linearGradient id="paint0_linear" x1="16" y1="0.832275" x2="16" y2="28.3543" gradientUnits="userSpaceOnUse">
<stop stop-color="#F0B90B"/>
<stop offset="1" stop-color="#FED860"/>
</linearGradient>
</defs>
</svg>
