<svg width="20" height="20" viewBox="0 0 20 20" fill="none" xmlns="http://www.w3.org/2000/svg">
<path d="M13 4.375H4.00977C2.80273 4.375 1.82227 5.35547 1.82227 6.5625V16.5625C1.82227 17.7695 2.80273 18.75 4.00977 18.75H13C14.207 18.75 15.1875 17.7695 15.1875 16.5625V6.5625C15.1875 5.35547 14.207 4.375 13 4.375ZM13.9375 16.5625C13.9375 17.0801 13.5176 17.5 13 17.5H4.00977C3.49219 17.5 3.07227 17.0801 3.07227 16.5625V6.5625C3.07227 6.04492 3.49219 5.625 4.00977 5.625H13C13.5176 5.625 13.9375 6.04492 13.9375 6.5625V16.5625Z" fill="#969696"/>
<path d="M16.0293 1.25H5.88477C4.67773 1.25 3.69727 2.23047 3.69727 3.4375H4.94727C4.94727 2.91992 5.36719 2.5 5.88477 2.5H16.0293C16.5469 2.5 16.9668 2.91992 16.9668 3.4375V14.6875C16.9668 15.2051 16.5469 15.625 16.0293 15.625V16.875C17.2363 16.875 18.2168 15.8945 18.2168 14.6875V3.4375C18.2168 2.23047 17.2363 1.25 16.0293 1.25Z" fill="#969696"/>
<path d="M4.75586 7.8125H12.2559V9.0625H4.75586V7.8125ZM4.75586 10.9375H12.2559V12.1875H4.75586V10.9375ZM4.75586 14.0625H9.57617V15.3125H4.75586V14.0625Z" fill="#969696"/>
</svg>
