<svg width="8" height="6" viewBox="0 0 8 6" fill="none" xmlns="http://www.w3.org/2000/svg">
<path d="M7.94754 1.69667C7.94754 1.91438 7.8638 2.12372 7.70471 2.29119L4.55626 5.44801C4.39716 5.60711 4.17945 5.69922 3.96173 5.69922C3.85095 5.69876 3.74135 5.67632 3.6393 5.6332C3.53725 5.59008 3.44476 5.52713 3.36721 5.44801L0.243883 2.28281C0.165843 2.20448 0.104109 2.11144 0.0622511 2.0091C0.0203931 1.90675 -0.00075811 1.79712 2.05685e-05 1.68655C0.000799247 1.57597 0.0234921 1.46665 0.0667874 1.3649C0.110083 1.26316 0.173121 1.171 0.252256 1.09377C0.578824 0.767203 1.11473 0.767203 1.4413 1.10214L3.96173 3.66445L6.50729 1.10214C6.83386 0.775576 7.36977 0.767203 7.69633 1.10214C7.8638 1.26124 7.94754 1.47895 7.94754 1.69667Z" fill="#969696"/>
</svg>
