<svg width="21" height="27" viewBox="0 0 21 27" fill="none" xmlns="http://www.w3.org/2000/svg">
<g clip-path="url(#clip0_53_1142)">
<path d="M5.75906 2.07052C7.10371 0.805607 8.88596 -0.0779864 10.7392 0.0060054C11.7687 0.051361 12.7754 0.388168 13.6677 0.911437C14.4433 1.34651 15.1095 1.94622 15.7586 2.55264C16.0231 2.81133 16.2223 3.12966 16.4917 3.38499C18.1254 5.42851 19.3174 7.82816 20.0832 10.3488C20.6081 12.1361 20.9404 13.9881 20.9927 15.8553C21.0996 18.9201 20.0326 22.1059 17.8062 24.204C15.7096 26.261 12.7101 27.1589 9.85423 26.9774C7.49232 26.88 5.13695 25.9947 3.36041 24.372C3.06079 24.0646 2.75708 23.7614 2.46643 23.4448C2.13415 23.0248 1.82717 22.5838 1.53734 22.1311C0.536411 20.3908 0.0130849 18.3758 0.00247143 16.3567C-0.0383497 13.9268 0.489875 11.5213 1.29078 9.24594C2.10312 7.01344 3.21672 4.86325 4.76548 3.07843C5.06102 2.71054 5.39167 2.36365 5.75906 2.07052ZM6.51262 2.77017C6.36076 2.88944 6.23014 3.03475 6.0742 3.14898C6.40485 3.10446 6.73795 3.13134 7.07023 3.12546C9.5742 3.12462 12.0782 3.1263 14.5821 3.12378C14.6972 3.12546 14.8124 3.13386 14.9275 3.15066C14.7724 3.03391 14.6417 2.8886 14.4891 2.77017C13.3224 1.73624 11.8332 0.947553 10.2559 1.0433C8.85167 1.1147 7.56417 1.84879 6.51262 2.77017ZM3.02405 7.61146C8.0083 7.60138 12.9926 7.60138 17.9768 7.61146C17.3612 6.39358 16.6673 5.2093 15.8019 4.1594C12.2684 4.1636 8.7341 4.16444 5.19981 4.1594C4.33522 5.2093 3.63963 6.39274 3.02405 7.61146ZM2.58155 8.64204C2.28845 9.34925 2.03455 10.0733 1.81248 10.8073C1.89984 11.1904 2.12598 11.5414 2.25171 11.9186C2.90648 11.9589 3.55717 12.0445 4.20704 12.126C4.64628 12.268 5.0055 12.7652 4.89284 13.2481C4.77609 13.7966 4.23888 14.0562 3.88374 14.4257C3.69025 14.6483 3.45349 14.8213 3.23468 15.017C3.36123 15.6638 3.51962 16.3038 3.63718 16.953C3.7523 17.6342 3.0069 18.2473 2.38071 17.9802C1.92025 17.7417 1.48591 17.4503 1.03933 17.1857C1.11607 17.8828 1.21976 18.5766 1.39774 19.2561C3.56125 19.2334 5.7264 19.2527 7.89074 19.246C11.7957 19.2519 15.7006 19.2342 19.6048 19.2552C19.7934 18.5674 19.8823 17.8585 19.9681 17.1504C19.586 17.4192 19.1794 17.6485 18.7859 17.8979C18.4193 18.1331 17.9368 18.0609 17.6151 17.7803C17.4502 17.5401 17.2837 17.2562 17.3482 16.9488C17.4682 16.3021 17.629 15.6638 17.7441 15.0153C17.4396 14.8112 17.229 14.4954 16.9351 14.277C16.6942 14.0788 16.4689 13.8596 16.2615 13.6244C15.988 13.2817 16.0239 12.7442 16.3187 12.4276C16.3374 12.4066 16.375 12.3654 16.3938 12.3444C16.5277 12.2285 16.6885 12.1395 16.8624 12.1101C17.4902 12.0563 18.114 11.9555 18.7434 11.9202C18.8822 11.5524 19.0382 11.1904 19.2014 10.8334C18.9679 10.0926 18.7198 9.35681 18.4201 8.64204C13.1403 8.64204 7.86135 8.64204 2.58155 8.64204ZM1.74553 20.2967C2.07537 21.1854 2.57093 22.0009 3.15386 22.7367C3.45675 23.0777 3.78495 23.3935 4.09928 23.7244C8.36753 23.7253 12.6358 23.7261 16.9049 23.7236C17.2159 23.3944 17.5425 23.0794 17.8454 22.7409C18.4291 22.0043 18.9239 21.1854 19.2561 20.2967C13.4187 20.2976 7.58213 20.2976 1.74553 20.2967ZM5.57618 24.7668C6.90368 25.4522 8.36018 25.8914 9.8477 25.9586C10.6111 25.9569 11.3826 26.0082 12.1361 25.852C13.2873 25.7041 14.3854 25.2875 15.4255 24.771C12.1418 24.7743 8.85901 24.7836 5.57618 24.7668Z" fill="white"/>
<path d="M9.70481 10.0688C10.0395 9.48175 10.9621 9.48175 11.2968 10.068C11.5785 10.682 11.8218 11.3136 12.1026 11.9284C12.7558 11.9528 13.4024 12.0536 14.0506 12.1283C14.7683 12.2888 14.9887 13.3714 14.396 13.8132C14.1216 14.0349 13.8979 14.3155 13.6155 14.5263C13.4154 14.6834 13.2456 14.8765 13.0799 15.0714C13.2138 15.6971 13.3526 16.3229 13.4799 16.9511C13.5265 17.1804 13.4367 17.4089 13.3322 17.6071C13.0807 18.0178 12.51 18.1564 12.0986 17.9296C11.5638 17.6122 11.0372 17.2795 10.5008 16.9646C9.93504 17.2905 9.3913 17.6575 8.81899 17.9716C8.20912 18.248 7.46454 17.7138 7.51108 17.0309C7.63518 16.3691 7.77968 15.7106 7.93235 15.0554C7.5168 14.6111 7.03919 14.2382 6.60648 13.8124C6.38768 13.6435 6.25134 13.3622 6.26685 13.08C6.23011 12.6062 6.61057 12.1628 7.06286 12.1073C7.67681 12.062 8.28341 11.9461 8.90063 11.9293C9.17903 11.3144 9.42314 10.682 9.70481 10.0688Z" fill="white"/>
</g>
<defs>
<clipPath id="clip0_53_1142">
<rect width="21" height="27" fill="white"/>
</clipPath>
</defs>
</svg>
