<svg width="1012" height="206" viewBox="0 0 1012 206" fill="none" xmlns="http://www.w3.org/2000/svg">
<path opacity="0.03" d="M702.823 102.364C702.823 38.2142 745.292 0.968201 807.02 0.968201C868.748 0.968201 911.205 38.5153 911.205 102.364C911.205 166.212 868.695 205.356 807.02 205.356C745.345 205.356 702.823 166.252 702.823 102.364ZM750.357 102.364C750.357 144.389 772.392 171.305 807.02 171.305C841.648 171.305 863.683 144.389 863.683 102.364C863.683 60.0644 841.635 34.7971 807.02 34.7971C772.406 34.7971 750.319 60.0644 750.319 102.364H750.357ZM252.269 102.364C252.269 38.2142 294.791 0.968201 356.466 0.968201C418.142 0.968201 460.664 38.5153 460.664 102.364C460.664 166.212 418.181 205.356 356.466 205.356C294.752 205.356 252.269 166.252 252.269 102.364ZM299.816 102.364C299.816 144.389 321.852 171.305 356.466 171.305C391.081 171.305 413.129 144.389 413.129 102.364C413.129 60.0644 391.081 34.7971 356.466 34.7971C321.852 34.7971 299.816 60.0644 299.816 102.364ZM1060.75 201.637L1034.66 157.964C1028.67 147.857 1023.35 137.475 1016.32 125.509H1015.08C1009.1 137.475 1003.73 147.857 998.065 157.964L973.186 201.637H923.759L989.218 99.9667L927.825 4.68542H979.463L1002.73 45.1657C1008.06 54.474 1013.12 64.0565 1020.03 76.2842H1021.63C1027.31 64.0434 1031.99 54.474 1037.06 45.1657L1059.05 4.68542H1108.17L1046.81 101.827L1112.27 201.625L1060.75 201.637ZM500.079 201.637V4.6982H577.185C625.023 4.6982 661.566 16.4032 661.566 53.1387C661.487 62.6999 658.357 71.9857 652.629 79.6419C646.902 87.2981 638.868 92.924 629.719 95.6998V97.0086C654.894 102.062 673.482 116.96 673.482 143.602C673.482 183.244 634.476 201.599 583.143 201.599L500.079 201.637ZM546.642 171.318H579.103C610.903 171.318 628.172 161.747 628.172 141.206C628.172 122.014 611.165 114.029 579.103 114.029H546.642V171.318ZM546.642 84.8198H573.734C603.308 84.8198 616.205 74.7136 616.205 59.0166C616.205 41.7224 602.365 34.8099 574.309 34.8099H546.604L546.642 84.8198ZM169.295 201.652V119.409C170.105 97.7793 172.005 76.2018 174.971 54.7608H173.719L154.848 101.053L118.935 183.833H92.2018L55.9821 101.053L37.4439 54.7608H36.1271C39.2273 76.1935 41.2287 97.7722 42.1232 119.409V201.652H0.22699V4.71099H51.8398L91.5114 96.7993C96.5256 109.04 100.964 122.066 105.664 134.882H107.237C112.251 122.066 116.323 109.04 121.39 96.7993L160.141 4.71099H211.741V201.652H169.295Z" fill="white"/>
</svg>
