<svg width="19" height="20" viewBox="0 0 19 20" fill="none" xmlns="http://www.w3.org/2000/svg">
<path d="M2.22008 8.17195C2.22008 9.24888 2.69033 10.2197 3.43189 10.8917C2.02968 11.7306 1.08008 13.2603 1.08008 15.012L1.08008 15.262H1.33008H2.47008H2.72008V15.012C2.72008 13.2553 4.13347 11.842 5.89008 11.842C7.64669 11.842 9.06008 13.2553 9.06008 15.012V15.262H9.31008H10.4501H10.7001V15.012C10.7001 13.2553 12.1135 11.842 13.8701 11.842C15.6267 11.842 17.0401 13.2553 17.0401 15.012V15.262H17.2901L18.4301 15.262H18.6801V15.012C18.6801 13.2601 17.7308 11.7311 16.329 10.8922C16.6606 10.5926 16.9356 10.2344 17.1395 9.83439C17.4019 9.3196 17.5391 8.75017 17.5401 8.17237V8.17195C17.5401 6.15288 15.8892 4.50195 13.8701 4.50195C11.851 4.50195 10.2001 6.15288 10.2001 8.17195C10.2001 9.24839 10.6699 10.2189 11.4109 10.8908C10.8015 11.2527 10.2789 11.7438 9.88008 12.3294C9.48141 11.7441 8.95911 11.2531 8.35005 10.8913C8.68117 10.5919 8.95579 10.234 9.15947 9.83439C9.42186 9.3196 9.55911 8.75017 9.56008 8.17237V8.17195C9.56008 6.15288 7.90915 4.50195 5.89008 4.50195C3.87101 4.50195 2.22008 6.15288 2.22008 8.17195ZM5.89008 6.14195C7.01912 6.14195 7.92008 7.04291 7.92008 8.17195C7.92008 9.30099 7.01912 10.202 5.89008 10.202C4.76104 10.202 3.86008 9.30099 3.86008 8.17195C3.86008 7.04291 4.76104 6.14195 5.89008 6.14195ZM13.8701 6.14195C14.9991 6.14195 15.9001 7.04291 15.9001 8.17195C15.9001 9.30099 14.9991 10.202 13.8701 10.202C12.741 10.202 11.8401 9.30099 11.8401 8.17195C11.8401 7.04291 12.741 6.14195 13.8701 6.14195Z" fill="white" stroke="white" stroke-width="0.5"/>
</svg>
