<svg width="32" height="33" viewBox="0 0 32 33" fill="none" xmlns="http://www.w3.org/2000/svg">
<path d="M20.4348 1.25567L30.6315 11.1121C30.8655 11.3378 31.0512 11.6064 31.178 11.9024C31.3047 12.1984 31.37 12.516 31.37 12.8367C31.37 13.1574 31.3047 13.4749 31.178 13.7709C31.0512 14.0669 30.8655 14.3356 30.6315 14.5613L18.9275 25.873H27.7667C28.438 25.873 29.16 26.2636 29.3754 26.7446L31.725 31.9718C31.9425 32.4528 31.4611 32.8434 30.6484 32.8434H1.24059C0.427807 32.8434 -0.053526 32.4528 0.163918 31.9718L2.51359 26.7446C2.72892 26.2636 3.45092 25.8751 4.12225 25.8751H10.2149L2.5917 18.5038C2.35795 18.278 2.17243 18.0093 2.04583 17.7133C1.91923 17.4173 1.85405 17.0999 1.85405 16.7792C1.85405 16.4586 1.91923 16.1411 2.04583 15.8451C2.17243 15.5491 2.35795 15.2805 2.5917 15.0546L16.867 1.25567C17.3418 0.797996 17.9828 0.54126 18.6509 0.54126C19.319 0.54126 19.9601 0.797996 20.4348 1.25567ZM24.3889 28.2924H7.50003C7.22008 28.2924 6.95159 28.4007 6.75364 28.5934C6.55568 28.7862 6.44447 29.0476 6.44447 29.3202C6.44447 29.5928 6.55568 29.8542 6.75364 30.0469C6.95159 30.2397 7.22008 30.3479 7.50003 30.3479H24.3889C24.6689 30.3479 24.9374 30.2397 25.1353 30.0469C25.3333 29.8542 25.4445 29.5928 25.4445 29.3202C25.4445 29.0476 25.3333 28.7862 25.1353 28.5934C24.9374 28.4007 24.6689 28.2924 24.3889 28.2924ZM21.0111 11.4615L14.9797 17.5151L12.8116 15.3362C12.6889 15.202 12.5306 15.1034 12.354 15.0511C12.1775 14.9989 11.9895 14.9951 11.8109 15.0402C11.6306 15.0878 11.4668 15.1818 11.3368 15.3124C11.2067 15.443 11.1153 15.6053 11.072 15.7823C11.0263 15.9607 11.0295 16.1476 11.0813 16.3244C11.1332 16.5012 11.2319 16.6616 11.3676 16.7895L14.2577 19.694C14.3516 19.7883 14.464 19.8633 14.5882 19.9145C14.7124 19.9657 14.8459 19.9921 14.9808 19.9921C15.1156 19.9921 15.2491 19.9657 15.3733 19.9145C15.4976 19.8633 15.6099 19.7883 15.7038 19.694L22.453 12.9148C22.634 12.7176 22.732 12.4611 22.7273 12.1967C22.7226 11.9322 22.6156 11.6792 22.4277 11.4882C22.3365 11.3952 22.2273 11.3206 22.1063 11.2688C21.9854 11.2171 21.8551 11.1891 21.723 11.1867C21.5909 11.1842 21.4597 11.2072 21.3367 11.2544C21.2138 11.3015 21.1017 11.3719 21.0069 11.4615H21.0111Z" fill="url(#paint0_linear)"/>
<defs>
<linearGradient id="paint0_linear" x1="15.9445" y1="0.54126" x2="15.9445" y2="32.8434" gradientUnits="userSpaceOnUse">
<stop stop-color="#1879F0"/>
<stop offset="1" stop-color="#14BCE9"/>
</linearGradient>
</defs>
</svg>
