<svg width="50" height="50" viewBox="0 0 50 50" fill="none" xmlns="http://www.w3.org/2000/svg">
<rect opacity="0.8" x="1" y="1" width="48" height="48" rx="15" fill="#504E4E" stroke="#707070" stroke-width="0.96"/>
<path d="M32.2097 17.8705C32.1949 17.8165 32.1949 17.7625 32.1702 17.7084L31.6633 16.6278C31.1466 15.53 30.2293 14.695 29.0746 14.2775C27.9225 13.8625 26.6788 13.9141 25.5711 14.4249L19.437 17.2688C19.2045 17.3769 19.0414 17.5684 18.9622 17.7895H18.584C16.0571 17.7895 14 19.8328 14 22.3427V31.4468C14 33.9567 16.0571 36 18.584 36H31.416C33.9429 36 36 33.9567 36 31.4468V22.3403C35.9975 20.1029 34.3583 18.2463 32.2097 17.8705V17.8705ZM26.3475 16.0777C27.0101 15.7707 27.7543 15.7413 28.4491 15.9918C29.1414 16.2423 29.6927 16.7433 30.0018 17.399L30.1848 17.7895H22.6512L26.3475 16.0777ZM34.1654 29.6269H30.2095C28.6939 29.6269 27.4601 28.4014 27.4601 26.896C27.4601 25.3905 28.6939 24.165 30.2095 24.165H34.1654V29.6269V29.6269ZM30.2095 22.3427C27.6826 22.3427 25.6255 24.386 25.6255 26.896C25.6255 29.4059 27.6826 31.4492 30.2095 31.4492H34.1654C34.1654 32.9547 32.9317 34.1802 31.416 34.1802H18.584C17.0683 34.1802 15.8346 32.9547 15.8346 31.4492V22.3427C15.8346 20.8373 17.0683 19.6118 18.584 19.6118H31.416C32.9317 19.6118 34.1654 20.8373 34.1654 22.3427H30.2095V22.3427Z" fill="white"/>
<path d="M29.2432 27.239C29.2432 27.8094 29.4713 28.3564 29.8773 28.7597C30.2834 29.1631 30.8341 29.3897 31.4084 29.3897C31.9826 29.3897 32.5333 29.1631 32.9394 28.7597C33.3455 28.3564 33.5736 27.8094 33.5736 27.239C33.5736 26.6686 33.3455 26.1215 32.9394 25.7182C32.5333 25.3148 31.9826 25.0883 31.4084 25.0883C30.8341 25.0883 30.2834 25.3148 29.8773 25.7182C29.4713 26.1215 29.2432 26.6686 29.2432 27.239Z" fill="#00C97C"/>
</svg>
