<svg xmlns="http://www.w3.org/2000/svg" xmlns:xlink="http://www.w3.org/1999/xlink" width="1920" height="551.402" viewBox="0 0 1920 551.402">
  <defs>
    <linearGradient id="linear-gradient" x1="0.5" x2="0.5" y2="1" gradientUnits="objectBoundingBox">
      <stop offset="0" stop-color="#2a2c30"/>
      <stop offset="1" stop-color="#222428"/>
    </linearGradient>
  </defs>
  <path id="交叉_1" data-name="交叉 1" d="M-3379.546,516.9c0-72.3,41.2-114.3,101.022-114.3S-3177.5,444.9-3177.5,516.9s-41.2,116.1-101.021,116.1S-3379.546,588.9-3379.546,516.9Zm46.087,0c0,47.4,21.363,77.7,54.935,77.7s54.937-30.3,54.937-77.7c0-47.7-21.365-76.2-54.937-76.2S-3333.459,469.2-3333.459,516.9Zm867.874,111.9v-222h46.085l41.9,75.476V557.9l-26.333-47.9-22.891-47.7h-1.526c2.137,24,5.494,51.9,5.494,77.4v89.1Zm-85.453,0-46.39-84h-31.435v84h-45.171v-222h78.741c47.306,0,84.845,16.2,84.845,67.2,0,33.3-17.089,54-43.032,63.9l52.8,90.9Zm-77.824-119.1h29.3c28.994,0,44.865-12,44.865-35.7,0-24-15.87-32.1-44.865-32.1h-29.3Zm-121.831,119.1-15.869-57h-73.249l-15.871,57h-45.781l72.334-222h53.106l72.636,222ZM-2823.331,513l-6.715,24.3h53.716l-6.714-24.3c-7.021-23.1-13.124-48.6-19.839-72.6h-1.22C-2809.9,464.7-2816.615,489.9-2823.331,513Zm-238.344,115.8v-222h138.562v36.9H-3016.5V495h79.353v37.2H-3016.5v59.4h96.748v37.2Zm-444.546,0V443.7H-3569.7V406.8h172.744v36.9h-64.093V628.8Zm-255.467,0V547.5l-67.755-140.7h47.916l22.585,54c6.409,16.5,12.514,32.1,19.532,49.2h1.222c7.019-17.1,13.735-32.7,20.144-49.2l22.584-54h47l-68.06,140.7v81.3Zm-107.642,0-15.87-57h-73.249l-15.87,57H-4020.1l72.332-222h53.1l72.637,222Zm-72.64-115.8-6.713,24.3h53.716l-6.716-24.3c-7.019-23.1-13.123-48.6-19.838-72.6h-1.22C-3928.539,464.7-3935.254,489.9-3941.969,513ZM-4168.13,628.8v-222h45.169V591.6h91.561v37.2ZM-4296.6,514.757c29.049-.832,43.021-13.71,43.021-38.359,0-24.5-14.863-33.581-43.021-34.433V406.8c49.449.281,87.275,17.528,87.275,69.6,0,50.7-38.756,73.5-87.275,73.5ZM-3362.569,196.9c0-72.3,41.2-114.3,101.021-114.3s101.021,42.3,101.021,114.3-41.2,116.1-101.021,116.1S-3362.569,268.9-3362.569,196.9Zm46.085,0c0,47.4,21.363,77.7,54.936,77.7s54.937-30.3,54.937-77.7c0-47.7-21.365-76.2-54.937-76.2S-3316.484,149.2-3316.484,196.9Zm882.333,111.9V227.5L-2501.9,86.8h47.917l22.584,54c6.409,16.5,12.513,32.1,19.533,49.2h1.22c7.02-17.1,13.734-32.7,20.143-49.2l12.907-30.861v94.035L-2388.98,227.5v81.3Zm-106.51,0-15.872-57h-73.249l-15.87,57h-45.781l72.333-222h53.106l72.637,222ZM-2613.3,193l-6.713,24.3h53.712l-6.712-24.3c-7.021-23.1-13.125-48.6-19.838-72.6h-1.221C-2599.872,144.7-2606.585,169.9-2613.3,193Zm-226.3,115.8V86.8h45.169V271.6h91.559v37.2Zm-204.987,0V86.8h74.164c50.053,0,88.508,17.1,88.508,69.6,0,50.7-38.761,73.5-87.287,73.5h-30.214v78.9Zm45.171-114h27.162c31.129,0,46.084-12.9,46.084-38.4,0-25.8-16.48-34.5-47.61-34.5h-25.637Zm-489.845,114V123.7h-63.483V86.8H-3380v36.9H-3444.1V308.8Zm-303.97,0V86.8h138.562v36.9h-93.393V175h79.352v37.2h-79.352v59.4h96.749v37.2Zm-189.135,0V86.8h138.561v36.9H-3937.2V175h79.351v37.2H-3937.2v59.4h96.75v37.2Zm-87.79,0-46.39-84h-31.437v84h-45.168V86.8h78.74c47.307,0,84.846,16.2,84.846,67.2,0,33.3-17.09,54-43.033,63.9l52.8,90.9Zm-77.826-119.1h29.3c28.994,0,44.865-12,44.865-35.7,0-24-15.87-32.1-44.865-32.1h-29.3ZM-4296.6,218.8V181.6h50.039v37.2Zm0-95.1V86.8h63.772v36.9Z" transform="translate(4297.101 -82.098)" stroke="rgba(0,0,0,0)" stroke-miterlimit="10" stroke-width="1" fill="url(#linear-gradient)"/>
</svg>
