<svg width="24" height="24" viewBox="0 0 24 24" fill="none" xmlns="http://www.w3.org/2000/svg">
  <path d="M4.98719 11.3856C4.98721 11.2517 5.0137 11.1191 5.06512 10.9954C5.11654 10.8717 5.19189 10.7594 5.28683 10.6649C5.38178 10.5704 5.49446 10.4956 5.61839 10.4448C5.74233 10.394 5.87508 10.3681 6.00903 10.3687L7.70314 10.3743C7.97326 10.3743 8.23232 10.4816 8.42332 10.6726C8.61432 10.8636 8.72163 11.1226 8.72163 11.3928V17.7991C8.91243 17.7425 9.15662 17.6822 9.42533 17.6189C9.6115 17.5751 9.77741 17.4697 9.89617 17.3198C10.0149 17.1699 10.0796 16.9843 10.0796 16.793V8.84704C10.0796 8.5769 10.1869 8.31783 10.3779 8.12679C10.5689 7.93576 10.828 7.82841 11.0981 7.82836H12.7973C13.0675 7.82841 13.3265 7.93576 13.5175 8.12679C13.7085 8.31783 13.8158 8.5769 13.8158 8.84704V16.2222C13.8158 16.2222 14.2409 16.0502 14.6548 15.8754C14.8086 15.8104 14.9398 15.7015 15.0321 15.5623C15.1244 15.4232 15.1737 15.26 15.1738 15.093V6.30073C15.1738 6.03065 15.2811 5.77162 15.472 5.58062C15.663 5.38963 15.922 5.2823 16.1921 5.28225H17.8896C18.1595 5.28251 18.4183 5.38993 18.6091 5.5809C18.7999 5.77188 18.9071 6.03078 18.9071 6.30073V13.5408C20.3787 12.4743 21.8702 11.1915 23.0538 9.64901C23.2255 9.42512 23.3391 9.1622 23.3845 8.88371C23.4299 8.60522 23.4057 8.31982 23.314 8.05298C22.7661 6.47673 21.8952 5.03222 20.757 3.81187C19.6188 2.59152 18.2384 1.62222 16.7041 0.965975C15.1698 0.309735 13.5154 -0.0189871 11.8468 0.000846952C10.1782 0.020681 8.53205 0.388633 7.01378 1.08116C5.49551 1.77368 4.13854 2.77553 3.02968 4.02258C1.92082 5.26964 1.0845 6.73445 0.57424 8.32327C0.0639797 9.91209 -0.108986 11.5899 0.0664101 13.2494C0.241806 14.9089 0.761703 16.5136 1.59283 17.9606C1.73763 18.2102 1.95067 18.4134 2.20691 18.5461C2.46315 18.6788 2.75195 18.7357 3.03939 18.71C3.3605 18.6817 3.7603 18.6418 4.23563 18.586C4.44251 18.5625 4.6335 18.4637 4.77223 18.3084C4.91097 18.1532 4.98776 17.9523 4.98798 17.7441V11.3856" fill="white"/>
  <path d="M4.95117 21.6602C6.74043 22.9619 8.85491 23.7432 11.0607 23.9177C13.2664 24.0923 15.4774 23.6532 17.4491 22.6491C19.4208 21.645 21.0763 20.115 22.2324 18.2285C23.3886 16.3419 24.0003 14.1723 23.9999 11.9596C23.9999 11.6828 23.987 11.4103 23.9686 11.1387C19.5864 17.6745 11.4951 20.7299 4.95117 21.6602" fill="#F0B90B"/>
</svg>
