<svg xmlns="http://www.w3.org/2000/svg" width="48" height="48" viewBox="0 0 48 48">
  <g id="组_14351" data-name="组 14351" transform="translate(-676 -5486)">
    <g id="telegram.805e47d0" transform="translate(676 5486)">
      <rect id="矩形_2878" data-name="矩形 2878" width="48" height="48" rx="10" transform="translate(0 0)" fill="#5562ea"/>
    </g>
    <g id="组_14348" data-name="组 14348" transform="translate(425.66 -78.096)">
      <path id="路径_12794" data-name="路径 12794" d="M443.733,479.272a1.267,1.267,0,1,1,1.26,1.406A1.336,1.336,0,0,1,443.733,479.272Zm4.508,0a1.267,1.267,0,1,1,1.26,1.406A1.335,1.335,0,0,1,448.241,479.272Z" transform="translate(-172.662 5108.771)" fill="#fff"/>
      <path id="路径_13615" data-name="路径 13615" d="M258.552,221.867h16.683a2.543,2.543,0,0,1,2.552,2.534v22.064l-2.677-2.337L273.6,242.75l-1.594-1.464.661,2.275H258.552A2.543,2.543,0,0,1,256,241.028V224.4A2.543,2.543,0,0,1,258.552,221.867Zm11.055,15.066c.374.467.822,1,.822,1a4.56,4.56,0,0,0,3.809-1.869,16.316,16.316,0,0,0-1.793-7.17,6.205,6.205,0,0,0-3.5-1.291l-.174.2a8.32,8.32,0,0,1,3.1,1.562,10.241,10.241,0,0,0-3.748-1.181,10.664,10.664,0,0,0-2.515.025,1.069,1.069,0,0,0-.184.02l-.028,0a9.435,9.435,0,0,0-2.825.775c-.461.209-.735.357-.735.357a8.438,8.438,0,0,1,3.274-1.611l-.124-.148a6.206,6.206,0,0,0-3.5,1.291,16.317,16.317,0,0,0-1.793,7.17,4.523,4.523,0,0,0,3.8,1.869s.461-.553.835-1.021a3.867,3.867,0,0,1-2.179-1.451s.124.086.348.209a.19.19,0,0,0,.05.037.6.6,0,0,0,.056.031,7.319,7.319,0,0,0,.965.449,10.563,10.563,0,0,0,1.83.529,8.829,8.829,0,0,0,3.225.012,8.277,8.277,0,0,0,1.805-.529,7.154,7.154,0,0,0,1.431-.726A3.923,3.923,0,0,1,269.607,236.933Z" transform="translate(7.34 5354.229)" fill="#fff"/>
    </g>
  </g>
</svg>
